<svg xmlns="http://www.w3.org/2000/svg" width="512" height="512" viewBox="0 0 512 512" version="1.1">
	<path d="M 296.500 42.755 C 294.300 43.613, 289.013 45.627, 284.752 47.230 C 279.126 49.345, 275.451 51.563, 271.338 55.322 C 268.222 58.170, 265.410 60.303, 265.090 60.062 C 264.025 59.262, 258.077 68.014, 256.316 72.973 C 254.853 77.092, 254.106 77.942, 251.541 78.407 C 248.436 78.969, 224.362 82.102, 174.500 88.433 C 159.100 90.388, 143.125 92.441, 139 92.994 C 134.875 93.548, 123.625 94.925, 114 96.054 C 74.969 100.633, 68.981 101.891, 59.348 107.536 C 53.840 110.764, 52.881 112.580, 54.051 117.565 C 55.214 122.525, 55.706 131.236, 57.517 179 C 59.805 239.344, 60.127 246.368, 60.696 248.500 C 61.664 252.122, 71.198 266.929, 72.866 267.401 C 78.633 269.030, 110.341 273.926, 142 278.076 L 165.500 281.156 213.500 280.460 L 261.500 279.765 265.750 287.751 C 269.294 294.411, 270 296.668, 270 301.340 C 270 307.776, 266.473 316.848, 262.259 321.250 C 259.021 324.632, 259.302 324.637, 268.832 321.376 C 277.661 318.354, 279.254 317.603, 281.415 315.443 C 282.818 314.039, 282.827 313.565, 281.493 310.986 C 279.599 307.324, 279.597 307.339, 282.101 306.684 C 285.012 305.922, 283.405 303.689, 280.364 304.271 C 278.205 304.683, 277.305 303.569, 271.481 293.279 C 267.916 286.981, 265 281.192, 265 280.414 C 265 278.709, 271.276 278.536, 277.879 280.058 C 281.602 280.917, 282.841 280.764, 286.159 279.034 C 288.306 277.915, 291.269 277, 292.744 277 C 298.673 277, 334.548 282.431, 335.213 283.430 C 335.640 284.070, 340.130 284.524, 346.381 284.559 C 353.428 284.600, 357.348 285.044, 358.407 285.923 C 360.912 288.002, 359.178 289.149, 354.572 288.459 C 350.105 287.789, 348.249 288.797, 345.912 293.164 C 344.077 296.593, 345.619 296.271, 349.199 292.476 C 352.397 289.086, 352.852 288.911, 356.062 289.833 L 359.500 290.820 355.809 290.910 C 353.779 290.959, 351.797 291.520, 351.405 292.155 C 351.012 292.789, 351.103 293.055, 351.605 292.744 C 352.404 292.250, 360.307 292.724, 398.769 295.571 L 407.037 296.183 414.017 305.591 C 424.213 319.336, 424.350 317.982, 414.250 303.291 C 411.913 299.891, 410 296.435, 410 295.610 C 410 294.532, 408.675 294.024, 405.289 293.805 C 400.651 293.505, 400.557 293.430, 399.216 289 C 398.467 286.525, 397.627 279.775, 397.350 274 C 396.817 262.885, 396.863 262.548, 404.486 222.500 C 406.475 212.050, 408.507 201.250, 409.001 198.500 C 409.495 195.750, 411.296 186.075, 413.002 177 C 414.709 167.925, 417.638 152.175, 419.512 142 C 425.441 109.802, 427.892 97.842, 429.631 92.604 C 431.069 88.277, 433.192 85.709, 443.762 75.511 C 450.604 68.910, 456.832 62.293, 457.601 60.805 C 459.715 56.718, 459.384 49.757, 456.927 46.635 C 454.176 43.138, 451.254 43.257, 441.470 47.265 L 433.500 50.530 402.500 49.884 C 385.450 49.528, 357.255 49.184, 339.844 49.119 C 308.537 49.001, 308.193 48.978, 308.719 46.967 C 309.437 44.220, 306.329 40.976, 303.095 41.097 C 301.668 41.151, 298.700 41.897, 296.500 42.755 M 309 57.475 C 309 58.440, 307.384 60.710, 305.410 62.519 C 302.281 65.385, 302.056 65.881, 303.660 66.376 C 305.989 67.095, 327.055 69.664, 337.195 70.465 C 344.314 71.028, 344.974 70.916, 346.014 68.974 C 346.632 67.819, 346.994 65.440, 346.819 63.687 C 346.522 60.721, 346.734 60.478, 349.885 60.177 C 352.839 59.894, 353.169 60.086, 352.473 61.677 C 352.035 62.679, 351.470 65.260, 351.218 67.411 L 350.759 71.322 367.630 70.612 C 376.908 70.221, 389.243 69.346, 395.039 68.666 C 405.427 67.448, 405.632 67.373, 409.262 63.465 C 411.288 61.284, 412.958 59.227, 412.973 58.893 C 412.988 58.559, 399.613 57.994, 383.250 57.636 C 366.887 57.279, 343.488 56.702, 331.250 56.353 C 310.461 55.762, 309 55.835, 309 57.475 M 296.117 79.359 C 294.812 80.932, 292.027 89.675, 292.011 92.250 C 292.003 93.504, 292.796 94, 294.807 94 C 297.288 94, 298 93.202, 300.941 87.122 C 302.771 83.339, 303.957 79.739, 303.575 79.122 C 302.607 77.555, 297.479 77.718, 296.117 79.359 M 390.631 80.101 C 387.403 80.572, 378.722 81.336, 371.340 81.797 C 359.576 82.533, 357.652 82.903, 355.765 84.791 C 354.580 85.975, 353.811 87.136, 354.056 87.370 C 355.013 88.286, 398.508 82.797, 399.225 81.670 C 401.077 78.759, 400.519 78.657, 390.631 80.101 M 328.504 82.925 C 334.572 85.629, 337 86.257, 337 85.124 C 337 83.154, 332.499 81.001, 328.527 81.071 L 324.500 81.141 328.504 82.925 M 309.523 84.500 C 304.026 93.523, 304.165 93.005, 307.250 92.986 C 311.951 92.958, 313.913 91.792, 315.048 88.353 C 315.672 86.464, 315.930 84.261, 315.623 83.459 C 314.738 81.153, 311.193 81.758, 309.523 84.500 M 322.618 87.552 C 321.528 90.393, 321.937 91, 324.941 91 C 329.914 91, 330.200 88.038, 325.368 86.583 C 323.905 86.142, 323.043 86.446, 322.618 87.552 M 231.594 96.678 C 229.640 102.414, 229.637 102.217, 231.673 101.823 C 232.921 101.582, 233.397 100.293, 233.546 96.750 C 233.656 94.138, 233.620 92, 233.467 92 C 233.314 92, 232.471 94.105, 231.594 96.678 M 221.319 93.803 C 220.679 94.199, 219.498 96.430, 218.694 98.761 C 217.345 102.676, 217.366 103, 218.965 103 C 220.070 103, 221.293 101.481, 222.347 98.799 C 223.989 94.618, 223.539 92.431, 221.319 93.803 M 208.769 95.784 C 207.761 95.991, 206.546 97.783, 205.859 100.076 C 203.905 106.600, 206.828 106.740, 209.539 100.253 C 211.287 96.070, 211.153 95.294, 208.769 95.784 M 386.959 95.649 C 386.100 95.882, 384 99.819, 382.209 104.554 C 378.795 113.584, 378.480 115, 379.889 115 C 380.813 115, 388.259 101.181, 389.452 97.250 C 390.132 95.010, 389.891 94.855, 386.959 95.649 M 194.395 97.765 C 193.147 98.595, 190.554 105.888, 191.257 106.591 C 192.366 107.699, 194.722 105.658, 195.812 102.644 C 197.687 97.457, 197.230 95.881, 194.395 97.765 M 225.198 99.464 C 223.839 102.448, 225.432 103.930, 226.950 101.094 C 227.527 100.015, 228 98.652, 228 98.066 C 228 96.129, 226.340 96.958, 225.198 99.464 M 238 99 C 238 100.867, 238.267 101.133, 239.200 100.200 C 240.133 99.267, 240.133 98.733, 239.200 97.800 C 238.267 96.867, 238 97.133, 238 99 M 370.281 98.250 C 367.374 102.019, 364.768 113, 366.781 113 C 367.461 113, 375 98.768, 375 97.483 C 375 96.449, 371.193 97.068, 370.281 98.250 M 179.517 99.973 C 179.186 100.508, 178.095 103.433, 177.092 106.473 C 175.371 111.690, 175.366 112, 177.007 112 C 178.166 112, 179.581 110.084, 181.251 106.250 C 182.629 103.088, 183.560 100.162, 183.319 99.750 C 182.694 98.678, 180.227 98.823, 179.517 99.973 M 212.954 101.086 C 211.668 103.490, 212.641 105.181, 214.039 102.971 C 215.020 101.420, 215.322 99, 214.535 99 C 214.280 99, 213.568 99.939, 212.954 101.086 M 377.733 100.744 C 376.860 101.710, 374.251 106.449, 371.936 111.276 C 368.231 118.998, 367.846 120.439, 368.727 123.276 L 369.728 126.500 372.729 120 C 376.150 112.590, 380.424 100.091, 379.763 99.430 C 379.520 99.187, 378.607 99.778, 377.733 100.744 M 386.617 111.250 C 377.601 130.066, 374.500 139, 376.986 139 C 378.766 139, 391.474 110.922, 393.392 102.750 C 394.813 96.699, 391.744 100.549, 386.617 111.250 M 165.240 102.250 C 163.632 104.249, 159.550 117.884, 160.327 118.661 C 160.716 119.049, 161.456 118.944, 161.973 118.427 C 163 117.400, 169 103.256, 169 101.862 C 169 100.559, 166.382 100.829, 165.240 102.250 M 199.729 102.604 C 199.328 103.005, 199 104.023, 199 104.867 C 199 105.992, 199.296 106.104, 200.113 105.287 C 200.724 104.676, 201.053 103.657, 200.842 103.025 C 200.631 102.392, 200.130 102.203, 199.729 102.604 M 150.079 104.405 C 149.203 105.460, 145 118.156, 145 119.747 C 145 119.886, 145.563 119.991, 146.250 119.981 C 147.425 119.963, 154 106.494, 154 104.104 C 154 102.540, 151.466 102.734, 150.079 104.405 M 134.315 106.250 C 133.301 107.830, 130.034 118.083, 130.015 119.750 C 130.007 120.438, 130.469 121, 131.042 121 C 132.159 121, 138 108.749, 138 106.407 C 138 104.664, 135.405 104.553, 134.315 106.250 M 184.583 106.643 C 184.237 107.547, 184.159 108.492, 184.410 108.743 C 185.205 109.538, 187 107.942, 187 106.441 C 187 104.479, 185.361 104.617, 184.583 106.643 M 82.500 108.509 C 74.091 110.019, 66.561 112.620, 64.940 114.573 C 63.187 116.684, 66.743 116.445, 74.139 113.953 C 77.835 112.708, 83.304 111.827, 88.103 111.703 C 92.441 111.591, 95.993 111.195, 95.995 110.821 C 96.005 109.455, 92.810 107.004, 91.179 107.126 C 90.255 107.195, 86.350 107.818, 82.500 108.509 M 119.409 107.765 C 118.274 108.531, 115 117.374, 115 119.678 C 115 122.782, 117.292 120.562, 120 114.836 C 123.237 107.990, 123.016 105.336, 119.409 107.765 M 127.290 108.250 C 125.950 110.005, 122 118.770, 122 119.989 C 122 120.545, 122.882 121, 123.960 121 C 125.503 121, 126.354 119.594, 127.960 114.395 C 129.082 110.762, 130 107.612, 130 107.395 C 130 106.510, 128.181 107.084, 127.290 108.250 M 139.982 113.218 C 136.650 119.841, 136.553 122.403, 139.709 120.412 C 141.510 119.276, 144.319 110.734, 143.737 108.161 C 143.507 107.146, 142.048 109.111, 139.982 113.218 M 154.656 112.717 C 151.497 118.922, 151.385 120, 153.900 120 C 155.353 120, 156.082 118.828, 156.993 115.029 C 158.735 107.769, 157.697 106.743, 154.656 112.717 M 168.951 112.097 C 167.801 114.350, 167.079 116.413, 167.347 116.680 C 168.370 117.703, 172 112.882, 172 110.500 C 172 107.027, 171.369 107.357, 168.951 112.097 M 327.030 113.250 C 325.374 116.138, 324.015 118.838, 324.009 119.250 C 323.978 121.777, 328.407 117.061, 330.554 112.282 C 332.264 108.477, 332.316 108, 331.020 108 C 330.481 108, 328.686 110.362, 327.030 113.250 M 356.077 114.649 C 352.784 121.686, 352.809 124.125, 356.131 119.985 C 360.127 115.005, 361.761 111.804, 361.270 109.923 C 360.428 106.704, 359.325 107.707, 356.077 114.649 M 108.487 114.624 C 107.119 117.718, 106 120.418, 106 120.624 C 106 120.831, 107.057 121, 108.348 121 C 110.291 121, 110.981 120.117, 112.348 115.885 C 114.378 109.600, 114.390 109, 112.487 109 C 111.611 109, 109.928 111.367, 108.487 114.624 M 307.679 121.994 C 302.518 132.321, 301.654 136.050, 304.077 137.547 C 304.929 138.074, 307.999 131.851, 311.744 122 C 317.288 107.417, 314.966 107.414, 307.679 121.994 M 287.323 113.601 C 286.985 114.481, 287.337 115.600, 288.104 116.086 C 290.846 117.821, 291.673 116.917, 290.393 113.582 C 289.612 111.546, 288.108 111.555, 287.323 113.601 M 206.937 115.117 C 205.974 116.918, 206.111 117.120, 208.094 116.830 C 210.792 116.434, 211.694 114.480, 209.558 113.660 C 208.625 113.303, 207.605 113.870, 206.937 115.117 M 193.607 116.582 C 192.731 118.866, 192.802 119, 194.893 119 C 196.461 119, 198 117.226, 198 115.418 C 198 114.207, 194.124 115.234, 193.607 116.582 M 229.499 120.004 C 227.117 127.174, 228.248 128.621, 230.834 121.712 C 233.305 115.111, 233.325 115, 232.080 115 C 231.575 115, 230.413 117.252, 229.499 120.004 M 333.607 117.582 C 332.668 120.028, 332.872 120.351, 334.500 119 C 336.162 117.620, 336.490 116, 335.107 116 C 334.616 116, 333.941 116.712, 333.607 117.582 M 234.589 123.556 C 233.026 127.144, 231.977 130.311, 232.259 130.593 C 233.154 131.488, 236.931 125.909, 237.965 122.164 C 239.699 115.885, 237.544 116.774, 234.589 123.556 M 179.831 120.250 C 178.282 121.498, 176.613 125, 177.567 125 C 178.983 125, 183 121.588, 183 120.385 C 183 118.666, 181.858 118.617, 179.831 120.250 M 284.468 121.101 C 283.503 124.141, 285.525 125.757, 286.954 123.087 C 288.095 120.953, 287.644 119, 286.008 119 C 285.528 119, 284.835 119.945, 284.468 121.101 M 373.919 126 C 370.404 132.601, 370.080 133.592, 370.685 135.903 C 371.598 139.395, 372.528 138.326, 374.916 131.044 C 377.700 122.552, 377.174 119.889, 373.919 126 M 222.053 129.500 C 218.644 137.005, 214 149.831, 214 151.743 C 214 155.818, 217.267 149.806, 221.116 138.651 C 225.363 126.341, 225.909 121.013, 222.053 129.500 M 289.590 126.627 C 288.975 128.229, 290.512 131, 292.015 131 C 293.433 131, 294.048 127.763, 292.895 126.373 C 291.389 124.559, 290.353 124.639, 289.590 126.627 M 356.945 131.750 C 355.145 135.463, 353.322 139.239, 352.895 140.142 C 352.028 141.975, 352.663 143, 354.667 143 C 355.400 143, 356 142.127, 356 141.059 C 356 139.991, 356.416 138.861, 356.924 138.547 C 357.431 138.233, 358.622 135.619, 359.569 132.738 C 360.516 129.857, 361.499 126.938, 361.753 126.250 C 362.006 125.563, 361.765 125, 361.216 125 C 360.667 125, 358.745 128.037, 356.945 131.750 M 208.028 130.361 C 207.463 131.813, 206.561 134.125, 206.025 135.500 C 205.488 136.875, 205.427 138, 205.889 138 C 206.959 138, 210.406 129.073, 209.634 128.301 C 209.316 127.983, 208.593 128.910, 208.028 130.361 M 238.476 130.075 C 238.114 131.217, 238.108 132.441, 238.463 132.796 C 239.213 133.546, 240.962 131.085, 240.985 129.250 C 241.010 127.223, 239.191 127.821, 238.476 130.075 M 326.110 134.489 C 323.619 139.788, 323.591 140, 325.364 140 C 326.511 140, 330 133.013, 330 130.717 C 330 128.582, 327.954 130.567, 326.110 134.489 M 343 132.559 C 343 134.010, 343.433 134.851, 344 134.500 C 344.550 134.160, 345 133.009, 345 131.941 C 345 130.873, 344.550 130, 344 130 C 343.450 130, 343 131.152, 343 132.559 M 68.608 132.579 C 67.847 134.562, 68.906 139, 70.140 139 C 71.564 139, 72.284 136.266, 71.589 133.498 C 70.877 130.662, 69.506 130.240, 68.608 132.579 M 362.261 134.500 C 361.156 138.100, 361.695 138.905, 363.800 136.800 C 365.158 135.442, 365.440 131, 364.168 131 C 363.710 131, 362.852 132.575, 362.261 134.500 M 187.158 135.866 C 185.785 140.449, 185.747 141, 186.799 141 C 187.239 141, 188.249 139.313, 189.044 137.250 C 189.839 135.188, 190.642 133.162, 190.828 132.750 C 191.014 132.338, 190.525 132, 189.742 132 C 188.954 132, 187.799 133.728, 187.158 135.866 M 287 133 C 287 133.550, 287.702 134, 288.559 134 C 289.416 134, 289.840 133.550, 289.500 133 C 289.160 132.450, 288.459 132, 287.941 132 C 287.423 132, 287 132.450, 287 133 M 84.500 135 C 83.779 137.271, 84.704 141, 85.988 141 C 87.100 141, 88.336 135.353, 87.515 134.024 C 86.511 132.400, 85.190 132.828, 84.500 135 M 311.740 134.710 C 311.458 135.695, 310.903 137.287, 310.506 138.250 C 310.108 139.218, 310.225 140, 310.768 140 C 311.308 140, 312.034 138.578, 312.382 136.840 C 313.067 133.416, 312.578 131.792, 311.740 134.710 M 383.113 135.652 C 382.425 137.162, 382.280 138.680, 382.777 139.177 C 383.273 139.673, 384.115 138.531, 384.731 136.525 C 385.996 132.403, 384.870 131.796, 383.113 135.652 M 77 137.441 C 77 138.784, 77.399 140.128, 77.886 140.430 C 78.909 141.062, 79.877 138.102, 79.254 136.250 C 78.526 134.086, 77 134.893, 77 137.441 M 93.166 137.139 C 93.350 138.437, 93.950 139.387, 94.500 139.250 C 95.976 138.881, 95.716 135.739, 94.166 135.222 C 93.251 134.917, 92.937 135.520, 93.166 137.139 M 137.405 138.750 C 134.352 145.810, 130 158.057, 130 159.588 C 130 162.271, 131.953 160.037, 135.161 153.682 C 138.103 147.853, 142 137.689, 142 135.843 C 142 133.469, 138.818 135.482, 137.405 138.750 M 106.636 140.283 C 104.855 144.948, 104.356 153.045, 105.948 151.450 C 106.906 150.491, 110 139.677, 110 137.290 C 110 134.579, 108.204 136.177, 106.636 140.283 M 115.098 139.149 C 112.648 146.177, 114.562 147.139, 117.788 140.500 C 119.880 136.193, 119.893 136, 118.085 136 C 116.865 136, 115.807 137.116, 115.098 139.149 M 227.096 145.135 C 225.850 149.001, 225.084 152.417, 225.392 152.726 C 226.001 153.335, 226.054 153.215, 228.928 144.771 C 230 141.620, 230.536 138.831, 230.119 138.573 C 229.701 138.316, 228.341 141.268, 227.096 145.135 M 192.670 140.807 C 189.500 144.319, 183.900 164.511, 186.945 161.450 C 188.460 159.927, 195.138 141.946, 194.804 140.288 C 194.558 139.066, 194.152 139.165, 192.670 140.807 M 233.445 145.529 C 230.815 151.475, 230.497 153, 231.886 153 C 233.010 153, 235.827 147.115, 236.634 143.080 C 237.586 138.319, 236.144 139.426, 233.445 145.529 M 65.649 142.472 C 64.730 144.868, 64.845 147, 65.893 147 C 67.289 147, 68.095 143.992, 67.151 142.305 C 66.404 140.971, 66.217 140.992, 65.649 142.472 M 73.054 143.899 C 72.106 145.671, 72.068 146.854, 72.901 148.683 C 75.029 153.351, 77.056 148.563, 75.087 143.522 C 74.344 141.622, 74.265 141.637, 73.054 143.899 M 89.121 144.319 C 87.883 147.423, 88.639 152.287, 90.274 151.742 C 92.174 151.109, 92.793 147.469, 91.511 144.465 L 90.245 141.500 89.121 144.319 M 210.601 143.837 C 209.454 145.693, 203 162.340, 203 163.443 C 203 165.628, 204.994 162.036, 208.445 153.632 C 210.449 148.755, 211.926 144.277, 211.727 143.681 C 211.488 142.963, 211.108 143.016, 210.601 143.837 M 284.510 144.016 C 284.856 144.575, 285.557 144.774, 286.069 144.457 C 287.456 143.600, 287.198 143, 285.441 143 C 284.584 143, 284.165 143.457, 284.510 144.016 M 290.345 144.543 C 290.019 145.392, 290.014 146.347, 290.333 146.667 C 291.342 147.676, 294 146.128, 294 144.531 C 294 142.535, 291.112 142.545, 290.345 144.543 M 298 146 C 298 147.100, 298.342 148, 298.759 148 C 299.177 148, 300.081 147.100, 300.768 146 C 301.861 144.249, 301.767 144, 300.008 144 C 298.667 144, 298 144.664, 298 146 M 305.667 144.667 C 305.300 145.033, 305 145.933, 305 146.667 C 305 148.714, 307.797 148.248, 309 146 C 309.893 144.332, 309.760 144, 308.202 144 C 307.174 144, 306.033 144.300, 305.667 144.667 M 313.459 146.067 C 313.096 146.653, 313.040 147.373, 313.333 147.667 C 314.050 148.383, 316 147.121, 316 145.941 C 316 144.663, 314.274 144.748, 313.459 146.067 M 319.957 147.080 C 318.966 148.933, 319.097 149.124, 321.162 148.830 C 322.437 148.648, 323.630 147.713, 323.813 146.750 C 324.285 144.274, 321.323 144.527, 319.957 147.080 M 197.117 148.421 C 196.458 150.028, 196.092 152.053, 196.302 152.921 C 196.565 154.004, 197.062 153.582, 197.883 151.579 C 198.542 149.972, 198.908 147.947, 198.698 147.079 C 198.435 145.996, 197.938 146.418, 197.117 148.421 M 334.607 147.582 C 333.749 149.817, 333.817 150, 335.500 150 C 336.333 150, 337 149.111, 337 148 C 337 145.616, 335.464 145.347, 334.607 147.582 M 122.225 148.228 C 120.941 149.776, 117 159.604, 117 161.260 C 117 163.117, 119.416 159.029, 121.825 153.093 C 124.036 147.647, 124.182 145.871, 122.225 148.228 M 111.183 151.763 C 109.253 156.798, 108.911 158.827, 109.890 159.432 C 111.156 160.215, 111.716 159.217, 112.853 154.157 C 113.929 149.372, 112.748 147.679, 111.183 151.763 M 348.543 149.931 C 348.226 150.443, 348.425 151.144, 348.984 151.490 C 350.177 152.227, 352 151.291, 352 149.941 C 352 148.724, 349.293 148.716, 348.543 149.931 M 140.033 154.500 C 137.150 161.027, 132 176.348, 132 178.398 C 132 182.237, 133.991 179.333, 137.318 170.641 C 141.468 159.799, 143.410 152.673, 142.724 150.810 C 142.459 150.090, 141.248 151.750, 140.033 154.500 M 216.744 161.750 C 214.247 167.662, 211.933 173.512, 211.602 174.750 C 211.271 175.988, 210.745 177.900, 210.433 179 C 209.435 182.517, 211.913 181.140, 213.582 177.250 C 215.211 173.451, 223 152.048, 223 151.369 C 223 151.166, 222.614 151, 222.143 151 C 221.671 151, 219.242 155.838, 216.744 161.750 M 68.607 154.431 C 68.271 155.767, 68.479 158.130, 69.069 159.681 C 70.044 162.246, 70.233 162.335, 71.166 160.668 C 72.283 158.673, 71.433 152, 70.063 152 C 69.598 152, 68.942 153.094, 68.607 154.431 M 84.429 156.428 C 83.757 159.103, 84.665 163, 85.959 163 C 87.152 163, 88.186 158.161, 87.473 155.915 C 86.633 153.269, 85.159 153.518, 84.429 156.428 M 93 156.500 C 93 157.325, 93.450 158, 94 158 C 94.550 158, 95 157.325, 95 156.500 C 95 155.675, 94.550 155, 94 155 C 93.450 155, 93 155.675, 93 156.500 M 315.161 157.547 C 313.750 160.644, 313.680 162.684, 314.957 163.474 C 316.265 164.282, 319.131 158.506, 318.386 156.563 C 317.523 154.316, 316.489 154.631, 315.161 157.547 M 325.667 155.667 C 325.300 156.033, 325.014 157.046, 325.030 157.917 C 325.055 159.217, 325.251 159.174, 326.122 157.675 C 327.199 155.823, 326.887 154.447, 325.667 155.667 M 338.092 158.549 C 336.517 160.861, 336.024 162.424, 336.666 163.066 C 337.943 164.343, 340.613 161.425, 341.530 157.750 C 342.474 153.967, 340.975 154.316, 338.092 158.549 M 353.395 157.805 C 350.432 161.597, 347.737 167.070, 348.471 167.804 C 349.664 168.997, 357 158.443, 357 155.532 C 357 154.267, 355.343 155.311, 353.395 157.805 M 374.965 158.542 C 374.125 159.555, 374.023 160.423, 374.670 161.070 C 375.316 161.716, 376.050 161.186, 376.806 159.527 C 378.080 156.731, 376.964 156.134, 374.965 158.542 M 121.114 162.264 C 118.766 167.115, 118.579 168, 119.906 168 C 120.843 168, 124.290 158.957, 123.612 158.278 C 123.401 158.068, 122.277 159.861, 121.114 162.264 M 226.119 165.759 C 222.746 176.728, 222.540 177.678, 223.786 176.500 C 224.950 175.400, 230 161.442, 230 159.326 C 230 155.886, 228.278 158.741, 226.119 165.759 M 190.731 163.753 C 188.005 168.761, 183.940 182.053, 184.086 185.480 C 184.233 188.925, 195 164.038, 195 160.254 C 195 157.697, 193.244 159.136, 190.731 163.753 M 150.283 162.503 C 148.466 165.954, 142.998 182.649, 143.040 184.619 C 143.104 187.603, 145.537 182.496, 149.055 171.995 C 151.942 163.377, 152.633 158.040, 150.283 162.503 M 231.972 167.402 C 228.464 175.139, 227.040 180.711, 228.858 179.588 C 231.468 177.975, 237.035 162.702, 235.554 161.221 C 235.259 160.926, 233.647 163.707, 231.972 167.402 M 64.815 164.750 C 64.262 167.063, 64.928 170, 66.006 170 C 67.248 170, 68.153 166.562, 67.416 164.641 C 66.593 162.496, 65.341 162.548, 64.815 164.750 M 72.544 165.862 C 71.827 168.119, 73.452 172, 75.115 172 C 75.767 172, 75.902 170.779, 75.474 168.750 C 74.577 164.491, 73.360 163.291, 72.544 165.862 M 107.212 165.242 C 105.520 167.284, 104.877 170.806, 106.063 171.539 C 107.150 172.211, 109.221 167.376, 108.790 165.173 C 108.538 163.884, 108.331 163.893, 107.212 165.242 M 297.154 165.552 C 297.345 166.532, 298.105 167.536, 298.846 167.782 C 299.706 168.069, 300.066 167.588, 299.846 166.448 C 299.655 165.468, 298.895 164.464, 298.154 164.218 C 297.294 163.931, 296.934 164.412, 297.154 165.552 M 88.667 165.667 C 87.701 166.632, 87.877 170.257, 88.974 171.992 C 90.495 174.398, 92.118 171.840, 91.388 168.188 C 90.762 165.058, 89.990 164.343, 88.667 165.667 M 208.640 167.741 C 206.579 171.712, 201 186.087, 201 187.427 C 201 189.637, 203.010 186.006, 206.957 176.669 C 210.952 167.216, 212.116 161.045, 208.640 167.741 M 288.485 167.048 C 287.726 169.438, 289.222 171.599, 290.913 170.554 C 292.427 169.618, 292.269 167.468, 290.584 166.070 C 289.450 165.129, 289.032 165.324, 288.485 167.048 M 319.571 166.571 C 317.697 168.446, 317.687 168.548, 319.125 171.234 C 320.248 173.333, 320.252 173.332, 321.590 170.918 C 324.231 166.150, 322.887 163.256, 319.571 166.571 M 80.558 168.625 C 80.198 170.061, 80.120 171.453, 80.385 171.718 C 81.303 172.637, 83 170.873, 83 169 C 83 166.016, 81.279 165.751, 80.558 168.625 M 96.656 168.206 C 95.995 170.737, 96.404 171.486, 97.933 170.541 C 99.217 169.748, 99.368 166, 98.117 166 C 97.631 166, 96.974 166.993, 96.656 168.206 M 195.905 169.611 C 194.317 173.597, 192 181.115, 192 182.281 C 192 182.811, 192.630 182.722, 193.400 182.083 C 195.003 180.753, 198.623 168.290, 197.680 167.347 C 197.337 167.004, 196.538 168.023, 195.905 169.611 M 302 171.941 C 302 173.903, 303.691 175.643, 304.658 174.675 C 305.443 173.890, 304.008 170, 302.933 170 C 302.420 170, 302 170.873, 302 171.941 M 360.738 174.250 C 357.213 179.096, 355.709 183, 357.366 183 C 359.007 183, 361.255 180.495, 363.379 176.300 C 366.422 170.290, 364.630 168.899, 360.738 174.250 M 123.268 179.113 C 121.541 182.626, 118.790 189.100, 117.155 193.500 C 115.520 197.900, 113.868 202.287, 113.484 203.250 C 113.100 204.213, 113.216 205, 113.742 205 C 114.877 205, 123.113 187.720, 125.515 180.298 C 128.035 172.511, 126.828 171.875, 123.268 179.113 M 69 178.500 C 69 183.094, 70.378 184.534, 71.473 181.085 C 72.205 178.778, 71.139 174, 69.892 174 C 69.401 174, 69 176.025, 69 178.500 M 314.607 175.582 C 313.730 177.866, 313.888 181.274, 314.947 182.948 C 316.289 185.069, 318.444 179.906, 317.608 176.574 C 316.879 173.670, 315.514 173.218, 314.607 175.582 M 216.027 182.541 C 212.801 190.241, 210 198.429, 210 200.159 C 210 200.622, 210.379 201, 210.842 201 C 211.706 201, 215.597 191.551, 218.543 182.298 C 221.247 173.803, 219.621 173.960, 216.027 182.541 M 84.516 177.250 C 83.453 180.406, 83.645 185, 84.839 185 C 86.397 185, 87.751 180.558, 86.897 178.250 C 85.965 175.730, 85.144 175.386, 84.516 177.250 M 337.507 177.989 C 337.157 178.555, 337.558 178.723, 338.448 178.382 C 340.180 177.717, 340.497 177, 339.059 177 C 338.541 177, 337.843 177.445, 337.507 177.989 M 365.980 181.524 C 364.048 183.853, 365.426 184.291, 367.494 182.006 C 368.493 180.903, 368.845 180, 368.277 180 C 367.710 180, 366.676 180.686, 365.980 181.524 M 77 182 C 77 182.550, 77.450 183, 78 183 C 78.550 183, 79 182.550, 79 182 C 79 181.450, 78.550 181, 78 181 C 77.450 181, 77 181.450, 77 182 M 275.543 181.931 C 275.226 182.443, 275.425 183.144, 275.984 183.490 C 276.543 183.835, 277 183.416, 277 182.559 C 277 180.802, 276.400 180.544, 275.543 181.931 M 138.171 184.111 C 132.200 200.222, 132.548 199, 133.918 199 C 135.021 199, 140.453 183.120, 139.631 182.298 C 139.315 181.981, 138.658 182.798, 138.171 184.111 M 295.722 184.954 C 295.441 186.028, 295.780 187.684, 296.474 188.634 C 297.646 190.237, 297.823 190.200, 298.938 188.116 C 299.868 186.379, 299.870 185.548, 298.947 184.436 C 297.319 182.475, 296.329 182.634, 295.722 184.954 M 65.695 184.639 C 64.657 185.676, 64.856 191, 65.933 191 C 67.340 191, 68.240 187.252, 67.256 185.492 C 66.779 184.641, 66.077 184.257, 65.695 184.639 M 264.667 184.667 C 263.687 185.646, 263.854 190.792, 264.886 191.430 C 265.799 191.994, 266.962 188.847, 266.986 185.750 C 267 183.975, 265.881 183.452, 264.667 184.667 M 318.660 186.396 C 316.958 188.994, 317.410 192.362, 319.373 191.711 C 321.131 191.127, 322.574 186.174, 321.344 184.944 C 320.615 184.215, 319.800 184.657, 318.660 186.396 M 148.158 188.750 C 144.620 195.798, 140.320 211, 141.864 211 C 143.599 211, 152 190.719, 152 186.532 C 152 183.802, 150.088 184.907, 148.158 188.750 M 223.526 191.544 C 221.493 199.054, 221.961 201.112, 224.261 194.772 C 226.455 188.723, 227.181 185, 226.167 185 C 225.689 185, 224.500 187.945, 223.526 191.544 M 72.512 187.962 C 71.684 190.571, 73.902 194.928, 75.030 192.910 C 75.957 191.253, 75.136 186, 73.951 186 C 73.502 186, 72.855 186.883, 72.512 187.962 M 87.932 189.126 C 86.732 191.369, 88.032 196, 89.862 196 C 90.949 196, 91.669 192.368, 91.199 189.250 C 90.773 186.419, 89.409 186.368, 87.932 189.126 M 97 189.559 C 97 190.416, 97.450 190.840, 98 190.500 C 98.550 190.160, 99 189.459, 99 188.941 C 99 188.423, 98.550 188, 98 188 C 97.450 188, 97 188.702, 97 189.559 M 188.150 190.789 C 186.032 193.763, 182.623 205.415, 183.305 207.344 C 183.734 208.556, 185.584 204.701, 189.588 194.250 C 192.114 187.657, 191.475 186.119, 188.150 190.789 M 309.388 189.431 C 308.581 191.535, 309.036 191.918, 311.347 191.077 C 313.017 190.470, 313.042 190.280, 311.609 189.090 C 310.277 187.985, 309.922 188.040, 309.388 189.431 M 106.583 189.866 C 106.152 190.563, 106.070 191.403, 106.400 191.733 C 107.295 192.628, 108.271 191.312, 107.787 189.862 C 107.449 188.846, 107.213 188.846, 106.583 189.866 M 229.652 192.442 C 228.711 194.610, 227.655 197.535, 227.305 198.942 C 226.741 201.207, 226.853 201.348, 228.283 200.170 C 230.240 198.558, 232.299 192.682, 231.756 190.258 C 231.477 189.016, 230.860 189.657, 229.652 192.442 M 347 190.500 C 345.988 191.720, 346.035 192, 347.255 192 C 348.080 192, 349.315 191.325, 350 190.500 C 351.012 189.280, 350.965 189, 349.745 189 C 348.920 189, 347.685 189.675, 347 190.500 M 301.154 191.552 C 301.345 192.532, 302.105 193.536, 302.846 193.782 C 303.706 194.069, 304.066 193.588, 303.846 192.448 C 303.655 191.468, 302.895 190.464, 302.154 190.218 C 301.294 189.931, 300.934 190.412, 301.154 191.552 M 205.712 194 C 201.607 203.508, 199.004 210.499, 199.040 211.922 C 199.094 214.056, 201.352 209.770, 205.085 200.446 C 208.082 192.961, 208.641 187.217, 205.712 194 M 279 192.441 C 279 193.298, 279.450 194, 280 194 C 280.550 194, 281 193.577, 281 193.059 C 281 192.541, 280.550 191.840, 280 191.500 C 279.450 191.160, 279 191.584, 279 192.441 M 292.728 193.933 C 292.431 195.069, 292.599 196.252, 293.101 196.562 C 294.413 197.374, 295.459 194.059, 294.267 192.867 C 293.602 192.202, 293.087 192.558, 292.728 193.933 M 359.029 194.961 C 358.220 195.473, 357.818 196.152, 358.136 196.470 C 358.455 196.788, 359.284 196.362, 359.980 195.524 C 361.423 193.786, 361.146 193.622, 359.029 194.961 M 68.607 197.431 C 68.271 198.767, 68.479 201.130, 69.069 202.681 C 70.044 205.246, 70.233 205.335, 71.166 203.668 C 72.283 201.673, 71.433 195, 70.063 195 C 69.598 195, 68.942 196.094, 68.607 197.431 M 122.142 201.843 C 118.950 208.768, 114.812 220.133, 113.584 225.348 C 112.698 229.109, 114.816 228.479, 117.289 224.245 C 119.193 220.984, 125.262 203.776, 126.457 198.250 C 127.635 192.798, 125.486 194.587, 122.142 201.843 M 283.583 195.866 C 283.152 196.563, 283.070 197.403, 283.400 197.733 C 284.295 198.628, 285.271 197.312, 284.787 195.862 C 284.449 194.846, 284.213 194.846, 283.583 195.866 M 84.121 199.319 C 83.009 202.109, 83.535 207, 84.948 207 C 86.785 207, 87.745 202.357, 86.507 199.456 L 85.245 196.500 84.121 199.319 M 92.473 200.317 C 92.060 201.334, 92.226 202.626, 92.851 203.251 C 94.538 204.938, 95.454 203.321, 94.263 200.760 C 93.298 198.686, 93.151 198.650, 92.473 200.317 M 216.796 200.549 C 216.482 201.072, 214.548 205.550, 212.499 210.500 C 206.427 225.163, 204.277 234.145, 208.348 227.837 C 210.293 224.824, 218.154 201.962, 217.707 200.620 C 217.498 199.995, 217.144 199.968, 216.796 200.549 M 313 202.441 C 313 204.557, 314.693 205.243, 315.395 203.412 C 316.250 201.184, 316.182 201, 314.500 201 C 313.675 201, 313 201.648, 313 202.441 M 364 202.059 C 364 202.641, 364.450 202.840, 365 202.500 C 365.550 202.160, 366 201.684, 366 201.441 C 366 201.198, 365.550 201, 365 201 C 364.450 201, 364 201.477, 364 202.059 M 318.161 206.547 C 316.773 209.593, 316.659 212, 317.902 212 C 318.739 212, 321 206.781, 321 204.851 C 321 203.073, 319.273 204.105, 318.161 206.547 M 356.020 205.476 C 355.231 206.426, 355.155 207, 355.819 207 C 357.027 207, 358.436 205.103, 357.743 204.409 C 357.491 204.158, 356.716 204.638, 356.020 205.476 M 66 209.500 C 66 211.657, 66.404 212.869, 67 212.500 C 67.550 212.160, 68 210.810, 68 209.500 C 68 208.190, 67.550 206.840, 67 206.500 C 66.404 206.131, 66 207.343, 66 209.500 M 224.279 207.503 C 223.698 208.601, 222.048 213.236, 220.611 217.802 C 216.055 232.287, 217.972 231.173, 223.108 216.351 C 225.917 208.243, 226.595 203.123, 224.279 207.503 M 278.345 207.543 C 278.019 208.392, 278.023 209.356, 278.352 209.686 C 279.217 210.550, 282.083 207.944, 281.430 206.887 C 280.576 205.506, 278.998 205.842, 278.345 207.543 M 72.547 208.853 C 72.218 209.889, 72.442 212.033, 73.045 213.618 C 73.998 216.125, 74.265 216.277, 75.099 214.788 C 76.099 213.001, 75.375 208.350, 73.961 207.476 C 73.512 207.198, 72.875 207.818, 72.547 208.853 M 187.172 212.250 C 184.046 217.767, 179.546 232.251, 180.320 234.301 C 180.570 234.960, 181.909 232.991, 183.297 229.925 C 187.230 221.234, 192.041 207, 191.045 207 C 190.551 207, 188.808 209.363, 187.172 212.250 M 308.535 208.888 C 308.167 210.050, 308.177 211.983, 308.558 213.184 C 309.233 215.309, 309.291 215.293, 310.720 212.564 C 312.015 210.092, 312.013 209.584, 310.697 208.269 C 309.375 206.946, 309.129 207.017, 308.535 208.888 M 87.908 210.302 C 86.963 212.377, 86.948 213.590, 87.844 215.556 C 88.484 216.962, 89.457 217.836, 90.004 217.497 C 91.249 216.728, 91.282 210.994, 90.053 209.052 C 89.320 207.893, 88.893 208.142, 87.908 210.302 M 330.038 211.925 C 327.271 217.350, 327.470 217.882, 331 214.500 C 334.069 211.559, 334.745 209.578, 333.038 208.524 C 332.509 208.197, 331.159 209.727, 330.038 211.925 M 80.711 209.622 C 79.683 210.650, 79.835 216, 80.893 216 C 81.384 216, 82.045 215.326, 82.361 214.501 C 83.065 212.668, 81.700 208.633, 80.711 209.622 M 95.566 210.893 C 94.835 212.076, 95.933 215, 97.107 215 C 98.290 215, 98.259 211.278, 97.069 210.543 C 96.557 210.226, 95.881 210.384, 95.566 210.893 M 149.259 211.226 C 145.755 215.579, 138.946 232.694, 139.032 236.932 C 139.095 240.062, 141.945 234.752, 146.628 222.777 C 150.929 211.780, 151.764 208.114, 149.259 211.226 M 261.153 211.715 C 260.554 212.834, 259.793 215.718, 259.462 218.125 L 258.860 222.500 260.943 220.124 C 263.561 217.136, 264.467 213.657, 263.211 211.413 C 262.314 209.809, 262.160 209.832, 261.153 211.715 M 300.039 211.928 C 298.848 214.153, 299.713 217.259, 301.373 216.715 C 302.804 216.246, 303.479 210, 302.099 210 C 301.533 210, 300.606 210.867, 300.039 211.928 M 205.324 213.500 C 203.701 216.484, 197 234.722, 197 236.156 C 197 238.677, 198.815 235.313, 202.928 225.171 C 205.232 219.491, 206.958 214.091, 206.764 213.171 C 206.460 211.724, 206.267 211.768, 205.324 213.500 M 178.567 217.867 C 175.744 223.440, 175.589 224, 176.877 224 C 177.923 224, 182.361 214.027, 181.637 213.303 C 181.361 213.027, 179.979 215.081, 178.567 217.867 M 336.667 213.667 C 336.300 214.033, 336 215.213, 336 216.289 C 336 217.914, 336.254 218.034, 337.500 217 C 338.325 216.315, 339 215.135, 339 214.378 C 339 212.920, 337.783 212.550, 336.667 213.667 M 291.479 216.024 C 290.156 217.486, 289.950 218.350, 290.739 219.139 C 291.527 219.927, 292.277 219.365, 293.441 217.115 C 295.267 213.582, 294.217 212.998, 291.479 216.024 M 312.230 217.770 C 311.518 219.811, 311.583 221.286, 312.454 222.914 L 313.676 225.197 314.926 222.178 C 315.614 220.517, 316.025 218.372, 315.839 217.412 C 315.278 214.523, 313.293 214.720, 312.230 217.770 M 68.844 217.750 C 68.571 220.828, 69.110 224.474, 69.969 225.351 C 71.220 226.629, 72.240 222.370, 71.495 218.978 C 70.782 215.730, 69.093 214.948, 68.844 217.750 M 192.022 218.500 C 190.586 222.041, 188.026 230.178, 188.011 231.250 C 188.005 231.662, 188.437 232, 188.971 232 C 190.169 232, 194.361 218.529, 193.710 216.772 C 193.444 216.054, 192.709 216.807, 192.022 218.500 M 137.070 221.355 C 135.806 223.967, 135.016 226.350, 135.316 226.649 C 136.077 227.411, 140.201 219.102, 139.743 217.729 C 139.537 217.111, 138.334 218.744, 137.070 221.355 M 83.542 221.811 C 83.202 223.356, 83.324 225.702, 83.813 227.024 L 84.702 229.426 85.917 227.154 C 87.172 224.810, 86.518 219, 85 219 C 84.537 219, 83.881 220.265, 83.542 221.811 M 225.035 221.934 C 223.751 224.334, 223.637 228.785, 224.895 227.450 C 225.947 226.333, 227.409 220, 226.615 220 C 226.315 220, 225.605 220.870, 225.035 221.934 M 295.038 222.909 C 294.096 225.182, 294.098 226.314, 295.046 228.086 L 296.259 230.353 297.713 227.578 C 299.155 224.827, 298.766 220, 297.102 220 C 296.629 220, 295.700 221.309, 295.038 222.909 M 98.767 222.164 C 98.122 223.845, 99.456 226.717, 100.250 225.357 C 100.525 224.886, 100.435 223.633, 100.050 222.573 C 99.478 220.999, 99.243 220.924, 98.767 222.164 M 122.661 224.329 C 118.029 235.245, 116.046 242, 117.475 242 C 118.404 242, 119.988 238.621, 121.992 232.367 C 125.153 222.497, 125.572 217.469, 122.661 224.329 M 107.237 223.163 C 105.735 224.665, 105.610 227, 107.031 227 C 108.239 227, 109.346 224.538, 108.832 222.995 C 108.593 222.280, 108.065 222.335, 107.237 223.163 M 326.486 225.381 C 325.565 226.786, 325.007 228.513, 325.245 229.218 C 325.490 229.943, 326.432 229.047, 327.413 227.157 C 329.511 223.115, 328.828 221.807, 326.486 225.381 M 214.242 225.664 C 210.064 234, 207.971 242.606, 210.893 239.433 C 212.137 238.083, 216.302 224.969, 215.684 224.350 C 215.397 224.064, 214.748 224.655, 214.242 225.664 M 262.013 227.975 C 260.829 230.188, 256 242.674, 256 243.523 C 256 243.785, 256.682 244, 257.515 244 C 259.845 244, 262.828 238.222, 263.572 232.270 C 264.318 226.303, 263.748 224.734, 262.013 227.975 M 316.399 228.547 C 315.812 230.886, 316.424 232.909, 317.419 231.915 C 318.547 230.786, 319.121 226, 318.127 226 C 317.528 226, 316.750 227.146, 316.399 228.547 M 350.987 229.032 C 350.296 230.700, 349.940 232.273, 350.195 232.528 C 351.051 233.384, 355.218 228.161, 354.546 227.074 C 353.420 225.252, 352.296 225.870, 350.987 229.032 M 277.392 228.422 C 277.092 229.204, 277.389 230.858, 278.053 232.098 L 279.259 234.353 280.674 231.653 C 281.452 230.168, 281.817 228.513, 281.485 227.976 C 280.584 226.519, 278.015 226.798, 277.392 228.422 M 307.500 229 C 306.787 231.247, 307.699 235, 308.959 235 C 310.114 235, 311.122 230.483, 310.392 228.579 C 309.560 226.410, 308.262 226.599, 307.500 229 M 335.490 231.679 C 333.243 237.055, 334.231 238.026, 337.320 233.479 C 340.388 228.965, 340.598 228, 338.513 228 C 337.696 228, 336.335 229.655, 335.490 231.679 M 67.158 231 C 67.158 232.375, 67.385 232.938, 67.662 232.250 C 67.940 231.563, 67.940 230.438, 67.662 229.750 C 67.385 229.063, 67.158 229.625, 67.158 231 M 270.667 229.667 C 269.666 230.667, 269.864 235.202, 270.881 234.574 C 271.365 234.274, 271.978 232.898, 272.242 231.515 C 272.707 229.080, 272.038 228.295, 270.667 229.667 M 343.984 232.192 C 341.040 236.122, 337.749 243.082, 338.486 243.820 C 339.543 244.876, 343.834 239.723, 345.475 235.426 C 347.718 229.553, 347.049 228.101, 343.984 232.192 M 72.639 231.499 C 72.322 232.323, 72.455 234.011, 72.934 235.249 L 73.804 237.500 74.771 235 C 75.765 232.429, 75.390 230, 74 230 C 73.568 230, 72.955 230.674, 72.639 231.499 M 299.312 232.250 C 298.216 234.695, 298.606 237, 300.116 237 C 301.341 237, 302.880 232.876, 302.262 231.250 C 301.545 229.366, 300.437 229.741, 299.312 232.250 M 79.692 232.360 C 78.991 234.186, 79.784 237, 81 237 C 82.492 237, 82.859 234.189, 81.592 232.457 C 80.430 230.868, 80.268 230.860, 79.692 232.360 M 87.500 233 C 86.776 235.280, 87.706 239, 89 239 C 90.294 239, 91.224 235.280, 90.500 233 C 90.151 231.900, 89.476 231, 89 231 C 88.524 231, 87.849 231.900, 87.500 233 M 290.324 233.952 C 289.473 236.208, 289.508 237.312, 290.473 238.633 C 291.646 240.236, 291.824 240.196, 292.953 238.087 C 294.164 235.824, 293.652 231, 292.200 231 C 291.781 231, 290.937 232.329, 290.324 233.952 M 95.166 234.139 C 95.350 235.437, 95.950 236.387, 96.500 236.250 C 97.976 235.881, 97.716 232.739, 96.166 232.222 C 95.251 231.917, 94.937 232.520, 95.166 234.139 M 110.161 235.547 C 108.788 238.559, 108.684 240, 109.839 240 C 110.711 240, 113 235.621, 113 233.953 C 113 232.088, 111.303 233.041, 110.161 235.547 M 130.200 237.699 C 129.039 241.484, 129.346 243.098, 130.911 241.433 C 132.216 240.046, 133.303 234, 132.247 234 C 131.746 234, 130.825 235.665, 130.200 237.699 M 220.750 234.572 C 220.338 234.991, 220 236.473, 220 237.867 C 220 239.687, 220.305 240.095, 221.085 239.315 C 221.681 238.719, 222.019 237.236, 221.835 236.020 C 221.651 234.805, 221.162 234.153, 220.750 234.572 M 273.420 238.575 C 272.524 243.350, 274.304 245.095, 275.970 241.074 C 277.261 237.955, 276.827 235, 275.077 235 C 274.534 235, 273.789 236.609, 273.420 238.575 M 282.386 236.437 C 281.598 238.490, 282.708 241.299, 283.993 240.504 C 284.547 240.162, 285 239.035, 285 238 C 285 235.536, 283.155 234.433, 282.386 236.437 M 311.585 237.835 C 310.303 240.315, 310.286 241.007, 311.468 242.617 C 312.783 244.408, 312.903 244.363, 313.925 241.685 C 316.080 236.040, 314.153 232.870, 311.585 237.835 M 326.282 239.121 C 323.210 242.957, 321.053 249.386, 322.390 250.724 C 323.245 251.578, 325.705 248.353, 327.901 243.500 C 332.129 234.155, 331.538 232.558, 326.282 239.121 M 354.113 239.250 L 353.029 242.500 355.015 240.139 C 357.139 237.613, 357.561 236, 356.098 236 C 355.602 236, 354.708 237.463, 354.113 239.250 M 68.694 240.061 C 68.359 241.342, 68.710 242.335, 69.621 242.685 C 71.636 243.458, 72.306 242.539, 71.524 240.075 C 70.682 237.423, 69.386 237.417, 68.694 240.061 M 185 239.559 C 185 240.416, 185.450 240.840, 186 240.500 C 186.550 240.160, 187 239.459, 187 238.941 C 187 238.423, 186.550 238, 186 238 C 185.450 238, 185 238.702, 185 239.559 M 294.604 241.798 C 293.352 244.221, 293.238 245.493, 294.079 247.694 L 295.151 250.500 296.540 248 C 298.144 245.114, 298.352 242.104, 297.086 240.104 C 296.403 239.027, 295.838 239.413, 294.604 241.798 M 346.789 241.750 C 345.011 243.797, 343.581 249, 344.797 249 C 345.593 249, 350 241.897, 350 240.614 C 350 239.418, 348.289 240.024, 346.789 241.750 M 84 242 C 84 242.550, 84.450 243, 85 243 C 85.550 243, 86 242.550, 86 242 C 86 241.450, 85.550 241, 85 241 C 84.450 241, 84 241.450, 84 242 M 277.194 246.873 C 276.405 249.138, 276.491 250.270, 277.561 251.669 C 278.782 253.265, 279.094 253.307, 279.992 252 C 281.298 250.097, 280.865 244.774, 279.364 244.282 C 278.739 244.077, 277.762 245.243, 277.194 246.873 M 260.665 249.174 C 260.047 251.538, 260.579 253, 262.059 253 C 262.577 253, 263 251.650, 263 250 C 263 246.522, 261.497 245.990, 260.665 249.174 M 306.535 248.888 C 305.770 251.299, 306.686 255, 308.048 255 C 309.808 255, 310.329 249.901, 308.732 248.304 C 307.363 246.935, 307.136 246.995, 306.535 248.888 M 199 249 C 199 249.550, 199.450 250, 200 250 C 200.550 250, 201 249.550, 201 249 C 201 248.450, 200.550 248, 200 248 C 199.450 248, 199 248.450, 199 249 M 206 249.500 C 206 250.325, 206.450 251, 207 251 C 207.550 251, 208 250.325, 208 249.500 C 208 248.675, 207.550 248, 207 248 C 206.450 248, 206 248.675, 206 249.500 M 213.015 249.250 C 213.024 249.938, 213.455 251.171, 213.974 251.992 C 215.224 253.969, 217.316 251.986, 216.426 249.667 C 215.683 247.732, 212.993 247.403, 213.015 249.250 M 179 249.809 C 179 250.254, 179.606 251.447, 180.347 252.460 C 181.318 253.787, 181.901 253.968, 182.433 253.108 C 182.840 252.450, 182.628 251.257, 181.964 250.456 C 180.650 248.874, 179 248.513, 179 249.809 M 188 250.941 C 188 252.073, 188.450 253, 189 253 C 189.550 253, 190 252.352, 190 251.559 C 190 250.766, 189.550 249.840, 189 249.500 C 188.450 249.160, 188 249.809, 188 250.941 M 125.639 250.694 C 124.513 251.820, 124.954 253, 126.500 253 C 127.325 253, 128 252.577, 128 252.059 C 128 250.798, 126.438 249.895, 125.639 250.694 M 141.664 250.669 C 140.924 251.410, 143.817 255, 145.155 255 C 145.620 255, 146 253.875, 146 252.500 C 146 250.742, 145.456 250, 144.167 250 C 143.158 250, 142.032 250.301, 141.664 250.669 M 195 253 C 195 254.333, 195.667 255, 197 255 C 199.267 255, 199.563 253.963, 197.800 252.200 C 196.037 250.437, 195 250.733, 195 253 M 289.710 253 C 289.322 254.483, 289.680 255, 291.094 255 C 293.198 255, 293.270 254.867, 292.393 252.582 C 291.559 250.408, 290.338 250.599, 289.710 253 M 210.597 253.844 C 210.251 254.404, 210.455 255.163, 211.050 255.531 C 212.588 256.481, 213.580 255.180, 212.296 253.896 C 211.578 253.178, 211.019 253.161, 210.597 253.844 M 79.032 256.750 C 79.089 258.105, 81.966 261.367, 82.571 260.763 C 83.361 259.972, 81.188 256, 79.965 256 C 79.434 256, 79.014 256.337, 79.032 256.750 M 90 258.878 C 90 259.360, 90.675 260.315, 91.500 261 C 93.128 262.351, 93.332 262.028, 92.393 259.582 C 91.750 257.907, 90 257.392, 90 258.878 M 300.500 274.924 C 303.846 275.864, 327.303 278.974, 333.461 279.294 C 336.464 279.450, 337.507 279.096, 337.769 277.829 C 338.049 276.484, 337.081 276.052, 332.808 275.611 C 322.968 274.597, 297.400 274.053, 300.500 274.924 M 346.839 278.302 C 345.539 280.730, 346.159 281.241, 350.581 281.383 C 353.456 281.475, 354.403 281.044, 355.046 279.348 C 355.786 277.399, 355.487 277.161, 351.851 276.814 C 348.707 276.515, 347.623 276.836, 346.839 278.302 M 211.328 316.500 C 211.333 320.350, 211.513 321.802, 211.730 319.728 C 211.946 317.653, 211.943 314.503, 211.722 312.728 C 211.501 310.952, 211.324 312.650, 211.328 316.500 M 268 317 C 268 317.550, 268.450 318, 269 318 C 269.550 318, 270 317.550, 270 317 C 270 316.450, 269.550 316, 269 316 C 268.450 316, 268 316.450, 268 317 M 422.702 317.967 C 422.985 319.049, 423.843 320.454, 424.608 321.090 C 426.124 322.348, 426.554 324.461, 425.113 323.570 C 424.625 323.268, 424.246 323.579, 424.270 324.261 C 424.419 328.378, 423.916 330.067, 422.750 329.367 C 421.805 328.799, 421.815 329.005, 422.792 330.211 C 423.881 331.556, 423.685 332.237, 421.542 334.549 C 419.150 337.130, 417.829 344.066, 419.750 343.958 C 420.163 343.935, 423.650 343.140, 427.500 342.192 C 435.160 340.304, 439.331 338.233, 437.238 337.355 C 435.627 336.679, 429.437 327.777, 429.796 326.652 C 430.014 325.964, 423.085 316, 422.388 316 C 422.278 316, 422.419 316.885, 422.702 317.967 M 268 323.109 C 260.575 325.784, 228.400 336.794, 196.500 347.576 C 164.600 358.358, 133.192 368.986, 126.704 371.193 C 120.216 373.401, 113.578 376.325, 111.954 377.692 C 109.420 379.824, 109 380.877, 109 385.089 C 109 387.790, 109.208 390, 109.463 390 C 109.718 390, 112.305 389.056, 115.213 387.902 C 122.942 384.834, 264.082 333.999, 264.849 334.006 C 265.207 334.009, 267.230 338.478, 269.344 343.938 C 272.290 351.543, 273.026 354.604, 272.493 357.033 C 270.834 364.586, 276.179 373.193, 283.368 374.541 C 288.924 375.584, 293.120 373.095, 296.248 366.901 C 301.547 356.411, 300.805 344.498, 294.525 339.238 C 292.727 337.732, 290.487 334.989, 289.546 333.141 C 287.728 329.569, 288.195 329.644, 279.367 331.509 L 276.500 332.114 279 330.592 C 281.998 328.768, 279.697 328.404, 275.426 330.028 C 273.939 330.593, 272.531 330.864, 272.297 330.630 C 272.062 330.396, 274.102 329.462, 276.831 328.556 C 280.322 327.397, 281.966 326.256, 282.382 324.704 C 283.213 321.603, 283.141 317.977, 282.250 318.123 C 281.837 318.191, 275.425 320.435, 268 323.109 M 434.072 329.135 C 434.985 330.841, 435.391 330.992, 436.092 329.885 C 437.457 327.730, 437.172 327, 434.965 327 C 433.197 327, 433.080 327.280, 434.072 329.135 M 209.573 333.882 C 209.273 334.368, 210.005 336.055, 211.200 337.632 C 212.395 339.210, 213.451 340.625, 213.547 340.778 C 214.062 341.595, 218.821 338.910, 219.363 337.497 C 219.895 336.111, 219.521 335.946, 217.069 336.485 C 214.739 336.997, 213.913 336.706, 213.034 335.064 C 211.868 332.885, 210.482 332.412, 209.573 333.882 M 286.538 336.777 C 286.187 338.854, 286.344 341.667, 286.886 343.027 C 287.700 345.066, 287.884 344.403, 287.937 339.250 C 288.008 332.164, 287.476 331.223, 286.538 336.777 M 281.836 336.076 C 281.158 339.622, 282.038 346.094, 283.108 345.433 C 284.180 344.771, 284.167 338.288, 283.089 335.528 C 282.381 333.717, 282.279 333.762, 281.836 336.076 M 420 340 C 420 342.274, 422.508 342.725, 423.324 340.598 C 423.952 338.962, 423.214 338, 421.333 338 C 420.600 338, 420 338.900, 420 340 M 435.500 341.721 C 429.138 342.842, 415.111 346.547, 411.135 348.156 C 408.586 349.188, 407.175 349.912, 408 349.765 C 410.688 349.287, 437.488 342.592, 437.917 342.292 C 438.769 341.695, 437.436 341.380, 435.500 341.721 M 415.872 343.750 C 414.629 345.336, 414.664 345.371, 416.250 344.128 C 417.212 343.373, 418 342.585, 418 342.378 C 418 341.555, 417.179 342.084, 415.872 343.750 M 403.813 350.683 C 404.534 350.972, 405.397 350.936, 405.729 350.604 C 406.061 350.272, 405.471 350.036, 404.417 350.079 C 403.252 350.127, 403.015 350.364, 403.813 350.683 M 399.813 351.683 C 400.534 351.972, 401.397 351.936, 401.729 351.604 C 402.061 351.272, 401.471 351.036, 400.417 351.079 C 399.252 351.127, 399.015 351.364, 399.813 351.683 M 428.500 353.468 C 415.653 357.150, 328.794 380.965, 288 391.989 C 267.375 397.563, 243.300 404.086, 234.500 406.486 C 216.667 411.349, 205.128 413.493, 202.047 412.515 C 200.441 412.005, 200 411.017, 200 407.933 C 200 405.603, 199.524 404, 198.833 404 C 195.275 404, 200.088 402.701, 209.850 401.026 C 215.964 399.977, 231.662 396.337, 244.733 392.938 C 285.912 382.230, 362.457 361.955, 363.500 361.480 C 364.050 361.230, 362.531 361.294, 360.123 361.622 C 356.717 362.086, 355.922 361.935, 356.537 360.939 C 357.108 360.017, 356.841 359.847, 355.582 360.330 C 354.622 360.699, 353.311 361.007, 352.668 361.015 C 351.998 361.024, 352.139 361.444, 353 362 C 354.212 362.783, 354.065 362.972, 352.236 362.985 C 350.991 362.993, 349.191 363.473, 348.236 364.050 C 345.348 365.797, 260.744 387.260, 246.112 389.958 C 242.598 390.606, 234.048 392.843, 227.112 394.929 C 207.889 400.711, 200.567 401.514, 168 401.405 C 141.588 401.318, 138.510 401.119, 125.980 398.692 C 118.544 397.252, 110.500 395.382, 108.104 394.537 C 105.709 393.692, 103.355 393, 102.874 393 C 101.570 393, 101.818 402.418, 103.158 403.758 C 104.034 404.634, 104.026 405.263, 103.125 406.350 C 99.863 410.280, 94.442 408.069, 95.640 403.297 C 96.123 401.375, 95.936 400.853, 94.891 401.197 C 93.372 401.696, 92.322 407, 93.742 407 C 94.222 407, 94.426 410.973, 94.194 415.829 C 93.883 422.331, 94.162 425.428, 95.252 427.579 C 96.067 429.186, 97.040 433.310, 97.416 436.746 C 98.687 448.379, 102.372 453, 110.378 453 C 114.890 453, 117.364 449.905, 120.129 440.801 C 121.850 435.136, 122.152 431.973, 121.841 422.882 L 121.463 411.843 124.481 412.490 C 133.980 414.527, 146.739 415.968, 155.500 415.993 C 161 416.009, 167.135 416.292, 169.134 416.623 C 172.500 417.180, 172.712 417.418, 172.019 419.862 C 171.458 421.841, 171.780 423.062, 173.310 424.750 C 174.431 425.988, 174.820 427, 174.174 427 C 172.438 427, 172.623 443.754, 174.397 447.153 C 175.158 448.613, 176.105 452.663, 176.501 456.153 C 177.774 467.380, 179.674 470.098, 187.239 471.517 C 192.727 472.547, 196.227 468.693, 198.374 459.256 C 200.262 450.952, 200.509 434.966, 198.852 428.193 C 197.456 422.481, 197.407 422.417, 195.594 423.922 C 194.794 424.586, 192.421 424.988, 190.320 424.815 C 187.234 424.560, 186.438 424.067, 186.180 422.246 C 185.971 420.777, 186.494 419.762, 187.680 419.333 C 188.681 418.971, 190.694 417.848, 192.154 416.837 C 193.837 415.673, 196.583 414.999, 199.654 414.999 C 207.149 414.997, 218.657 412.654, 241 406.582 C 252.275 403.518, 267.575 399.380, 275 397.386 C 282.425 395.393, 291.425 392.936, 295 391.926 C 298.575 390.917, 327.375 383.078, 359 374.505 C 390.625 365.933, 417.185 358.715, 418.023 358.465 C 420.547 357.710, 425.349 374.585, 425.433 384.500 C 425.513 394.038, 427.501 398.268, 433.324 401.289 C 443.433 406.534, 453.115 395.387, 453.191 378.415 C 453.223 371.059, 451.390 365.693, 448.036 363.323 C 447.119 362.675, 445.546 360.320, 444.540 358.090 C 442.979 354.627, 442.367 354.121, 440.356 354.626 C 437.812 355.264, 437.271 354.129, 439.200 352.200 C 440.993 350.407, 437.896 350.774, 428.500 353.468 M 393.500 353 C 392.239 353.542, 392.055 353.859, 393 353.859 C 393.825 353.859, 395.400 353.473, 396.500 353 C 397.761 352.458, 397.945 352.141, 397 352.141 C 396.175 352.141, 394.600 352.527, 393.500 353 M 385.500 355 C 384.239 355.542, 384.055 355.859, 385 355.859 C 385.825 355.859, 387.400 355.473, 388.500 355 C 389.761 354.458, 389.945 354.141, 389 354.141 C 388.175 354.141, 386.600 354.527, 385.500 355 M 345.667 355.667 C 344.332 357.001, 345.047 359.955, 346.951 360.974 C 348.787 361.956, 348.837 361.826, 347.803 358.759 C 346.468 354.803, 346.493 354.840, 345.667 355.667 M 380.813 356.683 C 381.534 356.972, 382.397 356.936, 382.729 356.604 C 383.061 356.272, 382.471 356.036, 381.417 356.079 C 380.252 356.127, 380.015 356.364, 380.813 356.683 M 376.813 357.683 C 377.534 357.972, 378.397 357.936, 378.729 357.604 C 379.061 357.272, 378.471 357.036, 377.417 357.079 C 376.252 357.127, 376.015 357.364, 376.813 357.683 M 441.457 359.315 C 440.595 362.748, 441.819 371.230, 443.064 370.460 C 444.266 369.718, 444.257 359.955, 443.053 358.052 C 442.336 356.917, 441.990 357.191, 441.457 359.315 M 368.500 359.538 C 364.556 360.902, 364.549 360.913, 368 360.331 C 372.079 359.643, 376.250 358.120, 374 358.140 C 373.175 358.148, 370.700 358.776, 368.500 359.538 M 437.015 364.250 C 437.035 371.034, 438.480 373.585, 439.431 368.515 C 440.200 364.416, 439.340 359, 437.921 359 C 437.414 359, 437.007 361.363, 437.015 364.250 M 105.564 384.707 C 105.022 386.132, 105.136 386.247, 106.124 385.267 C 106.808 384.588, 107.115 383.781, 106.807 383.474 C 106.499 383.166, 105.940 383.721, 105.564 384.707 M 120.250 400.080 C 121.452 400.780, 122 402.344, 122 405.074 C 122 408.490, 122.387 409.197, 124.750 410.097 C 131.502 412.668, 154.346 415.227, 162.250 414.298 L 167 413.740 167 409.443 C 167 406.192, 167.426 405.035, 168.750 404.689 C 169.713 404.438, 169.103 404.180, 167.395 404.116 C 158.108 403.769, 137.399 401.752, 130 400.474 C 119.779 398.709, 117.756 398.627, 120.250 400.080 M 108.794 409.750 C 108.616 410.163, 108.717 413.200, 109.019 416.500 L 109.567 422.500 110.034 415.748 C 110.436 409.920, 109.881 407.233, 108.794 409.750 M 97 413.511 C 97 416.266, 97.398 417, 98.891 417 C 100.285 417, 100.882 416.134, 101.166 413.700 C 101.498 410.860, 101.234 410.373, 99.276 410.211 C 97.307 410.048, 97 410.493, 97 413.511 M 192.945 417.250 C 192.212 420.066, 192.681 424, 193.750 424 C 194.438 424, 194.968 423.212, 194.930 422.250 C 194.848 420.212, 193.233 416.144, 192.945 417.250 M 174.602 421.135 C 174.909 425.562, 178.970 427.630, 181.800 424.800 C 184.166 422.434, 183.145 420.134, 179.250 419.053 C 174.206 417.652, 174.357 417.584, 174.602 421.135 M 176 430.893 C 176 434.607, 176.239 435, 178.500 435 C 180.690 435, 181 434.567, 181 431.500 C 181 429.575, 180.587 428, 180.082 428 C 179.577 428, 178.452 427.727, 177.582 427.393 C 176.298 426.900, 176 427.559, 176 430.893 M 186.185 427.864 C 184.020 429.238, 185.076 436.991, 187.662 438.699 C 189.794 440.107, 189.828 440.038, 190.162 433.561 C 190.510 426.799, 189.699 425.636, 186.185 427.864" stroke="none" fill="black" fill-rule="evenodd"/>
</svg>